<svg version="1.2" xmlns="http://www.w3.org/2000/svg" viewBox="0 0 571 433" width="571" height="433"><style>.a{opacity:.1;fill:#003bef}.b{opacity:.1;fill:#0099da}</style><path class="a" d="m155.1 257.2c-36.9 4.4-58.6-22.3-50.8-58.1 7.5-34.3 40-67 74.7-74.8 36.9-8.3 64.3 13.7 59.1 51.3-5.4 39.5-43.7 76.8-83 81.6z"/><path class="b" d="m206.8 400.3c-78.3 0.2-121.4-63.1-106.1-135.7 14.1-66.9 75.5-128.2 144.5-143.1 77.3-16.7 144 28.2 140.4 109.1-4 89.5-89.5 169.5-178.8 169.7z"/><path class="a" d="m322.3 233.1c-69.3 10-114.3-30.2-107.1-85.6 6.7-51.6 57.7-104.1 119-121.9 67.1-19.5 127.6 7.6 129.5 66.4 2.1 64-64.6 129.9-141.4 141.1z"/></svg>