<svg version="1.2" xmlns="http://www.w3.org/2000/svg" viewBox="0 0 16 16" width="16" height="16"><style>.a{fill:#fff}</style><path class="a" d="m16 8q0 1.3-0.4 2.5-0.4 1.2-1.1 2.2-0.7 1-1.7 1.7-1.1 0.8-2.3 1.2c-0.4 0.1-0.5-0.2-0.5-0.4 0-0.3 0-1.1 0-2.2 0-0.7-0.2-1.2-0.5-1.5 1.8-0.2 3.6-0.8 3.6-3.9 0-0.9-0.3-1.6-0.8-2.2 0.1-0.2 0.4-1-0.1-2.1 0 0-0.7-0.2-2.2 0.8q-1-0.2-2-0.2-1 0-2 0.2c-1.5-1-2.2-0.8-2.2-0.8-0.4 1.1-0.1 1.9-0.1 2.1-0.5 0.6-0.8 1.3-0.8 2.2 0 3 1.9 3.7 3.7 3.9-0.3 0.2-0.5 0.6-0.5 1.1-0.5 0.2-1.7 0.5-2.4-0.7-0.1-0.2-0.6-0.8-1.2-0.8-0.7 0-0.3 0.4 0 0.5 0.3 0.2 0.7 0.9 0.8 1.2 0.2 0.4 0.7 1.3 2.7 0.9 0 0.7 0 1.3 0 1.5 0 0.2-0.1 0.5-0.5 0.4-3.2-1.1-5.5-4.1-5.5-7.6 0-4.4 3.6-8 8-8 4.4 0 8 3.6 8 8z"/></svg>