<svg version="1.2" xmlns="http://www.w3.org/2000/svg" viewBox="0 0 16 16" width="16" height="16"><style>.a{fill:#fff}</style><path fill-rule="evenodd" class="a" d="m0 8c0-2.1 0.8-4.2 2.3-5.7 1.5-1.5 3.6-2.3 5.7-2.3 2.1 0 4.2 0.8 5.7 2.3 1.5 1.5 2.3 3.6 2.3 5.7 0 2.1-0.8 4.2-2.3 5.7-1.5 1.5-3.6 2.3-5.7 2.3-2.1 0-4.2-0.8-5.7-2.3-1.5-1.5-2.3-3.6-2.3-5.7zm7.5-6.9c-0.7 0.2-1.3 0.8-1.9 1.8q-0.1 0.2-0.1 0.3-0.1 0.1-0.1 0.3-0.1 0.1-0.2 0.2 0 0.2-0.1 0.3h2.4zm-3.4 2.9q0.1-0.2 0.1-0.4 0.1-0.2 0.2-0.4 0.1-0.2 0.1-0.3 0.1-0.2 0.2-0.4 0.1-0.1 0.2-0.3 0-0.1 0.1-0.2 0.1-0.1 0.2-0.2 0-0.1 0.1-0.2-0.4 0.1-0.9 0.4-0.4 0.3-0.8 0.6-0.4 0.3-0.7 0.6-0.4 0.4-0.6 0.8zm-0.6 3.5q0-1.3 0.3-2.5h-2.2q-0.1 0.3-0.2 0.6-0.1 0.3-0.2 0.6-0.1 0.4-0.1 0.7-0.1 0.3-0.1 0.6zm1.3-2.5q-0.1 0.3-0.1 0.6-0.1 0.4-0.1 0.7-0.1 0.3-0.1 0.6 0 0.3 0 0.6h3v-2.5zm3.6 0v2.5h3q0-0.3 0-0.6 0-0.3-0.1-0.6 0-0.3-0.1-0.7 0-0.3-0.1-0.6zm-4 3.5q0 0.3 0 0.7 0.1 0.3 0.1 0.6 0 0.3 0.1 0.6 0.1 0.3 0.1 0.6h2.7v-2.5zm4 0v2.5h2.6q0.3-1.1 0.4-2.5zm-3.4 3.5q0.2 0.6 0.5 1.1c0.5 1 1.2 1.6 1.9 1.8v-2.9zm0.1 2.5q0-0.1-0.1-0.2-0.1-0.1-0.2-0.3 0-0.1-0.1-0.2-0.1-0.1-0.2-0.2-0.1-0.2-0.1-0.4-0.1-0.2-0.2-0.4-0.1-0.2-0.2-0.4 0-0.2-0.1-0.4h-1.8q0.3 0.4 0.6 0.8 0.3 0.4 0.7 0.7 0.4 0.3 0.9 0.5 0.4 0.3 0.8 0.5zm-1.5-3.5q0-0.3-0.1-0.6 0-0.3-0.1-0.6 0-0.3 0-0.6-0.1-0.4-0.1-0.7h-2.5q0.1 1.4 0.7 2.5zm6.8 3.5q0.5-0.2 0.9-0.5 0.5-0.2 0.9-0.5 0.3-0.3 0.7-0.7 0.3-0.4 0.6-0.8h-1.8q-0.1 0.2-0.2 0.4 0 0.2-0.1 0.4-0.1 0.2-0.2 0.4-0.1 0.2-0.2 0.4 0 0.1-0.1 0.2-0.1 0.1-0.1 0.2-0.1 0.2-0.2 0.3-0.1 0.1-0.2 0.2zm-2.1-2.5v2.9c0.6-0.2 1.3-0.8 1.9-1.8q0.2-0.5 0.4-1.1zm3.7-1h2.2q0.5-1.1 0.6-2.5h-2.5q0 0.3 0 0.7 0 0.3-0.1 0.6 0 0.3-0.1 0.6 0 0.3-0.1 0.6zm2.8-3.5q0-0.3-0.1-0.6 0-0.3-0.1-0.7-0.1-0.3-0.2-0.6-0.1-0.3-0.2-0.6h-2.2q0.3 1.2 0.3 2.5zm-3.7-5q0.4 0.7 0.6 1.5h1.9q-0.3-0.4-0.6-0.8-0.4-0.3-0.8-0.6-0.4-0.3-0.8-0.6-0.4-0.3-0.9-0.4 0.3 0.4 0.6 0.9zm-0.4 1.5q-0.1-0.1-0.1-0.3-0.1-0.1-0.1-0.2-0.1-0.2-0.1-0.3-0.1-0.1-0.2-0.2c-0.5-1.1-1.2-1.7-1.9-1.9v2.9z"/></svg>