<svg version="1.2" xmlns="http://www.w3.org/2000/svg" viewBox="0 0 16 16" width="16" height="16"><style>.a{fill:#fff}</style><path fill-rule="evenodd" class="a" d="m8 0q0 0 0 0c2.2 0 2.4 0 3.3 0 0.8 0.1 1.4 0.2 1.9 0.4q0.2 0.1 0.4 0.2 0.2 0.1 0.4 0.2 0.2 0.1 0.3 0.3 0.2 0.1 0.4 0.2 0.1 0.2 0.2 0.4 0.2 0.1 0.3 0.3 0.1 0.2 0.2 0.4 0.1 0.2 0.2 0.4c0.2 0.5 0.3 1.1 0.4 1.9 0 0.9 0 1.1 0 3.3 0 2.2 0 2.4 0 3.3-0.1 0.9-0.2 1.4-0.4 1.9-0.2 0.6-0.5 1-0.9 1.5q-0.2 0.1-0.4 0.2-0.1 0.2-0.3 0.3-0.2 0.1-0.4 0.2-0.2 0.1-0.4 0.2c-0.5 0.2-1.1 0.3-1.9 0.4-0.9 0-1.1 0-3.3 0-2.2 0-2.4 0-3.3 0-0.9-0.1-1.4-0.2-1.9-0.4-0.6-0.2-1-0.5-1.5-0.9-0.4-0.5-0.7-0.9-0.9-1.5-0.2-0.5-0.3-1-0.4-1.9 0-0.9 0-1.1 0-3.3 0-2.2 0-2.4 0-3.3 0.1-0.8 0.2-1.4 0.4-1.9q0.1-0.2 0.2-0.4 0.1-0.2 0.2-0.4 0.1-0.2 0.3-0.3 0.1-0.2 0.2-0.4 0.2-0.1 0.4-0.2 0.1-0.2 0.3-0.3 0.2-0.1 0.4-0.2 0.2-0.1 0.4-0.2c0.5-0.2 1-0.3 1.9-0.4 0.9 0 1.1 0 3.3 0q0 0 0 0zm-0.7 1.4c-1.5 0-1.8 0.1-2.5 0.1-0.8 0-1.2 0.2-1.5 0.3-0.4 0.1-0.7 0.3-0.9 0.6-0.3 0.2-0.5 0.5-0.6 0.9-0.1 0.3-0.3 0.7-0.3 1.5 0 0.8-0.1 1.1-0.1 3.2 0 2.1 0.1 2.4 0.1 3.2 0 0.8 0.2 1.2 0.3 1.5q0 0.1 0.1 0.3 0 0.1 0.1 0.2 0.1 0.1 0.2 0.2 0.1 0.1 0.2 0.2 0.1 0.1 0.2 0.2 0.1 0.1 0.2 0.2 0.1 0.1 0.2 0.1 0.2 0.1 0.3 0.1c0.3 0.1 0.7 0.3 1.5 0.3 0.8 0 1.1 0.1 3.2 0.1 2.1 0 2.4-0.1 3.2-0.1 0.8 0 1.2-0.2 1.5-0.3 0.4-0.1 0.7-0.3 0.9-0.6q0.1-0.1 0.2-0.2 0.1-0.1 0.2-0.2 0.1-0.1 0.1-0.2 0.1-0.2 0.1-0.3c0.1-0.3 0.3-0.7 0.3-1.5 0.1-0.8 0.1-1.1 0.1-3.2 0-2.1 0-2.4-0.1-3.2 0-0.8-0.2-1.2-0.3-1.5-0.1-0.4-0.3-0.7-0.6-0.9-0.2-0.3-0.5-0.5-0.9-0.6-0.3-0.1-0.7-0.3-1.5-0.3-0.8-0.1-1.1-0.1-3.2-0.1h-0.7zm5.6 1.7q0.3 0.2 0.3 0.6 0 0.4-0.3 0.7-0.2 0.3-0.6 0.3-0.4 0-0.7-0.3-0.3-0.3-0.3-0.7 0-0.4 0.3-0.6 0.3-0.3 0.7-0.3 0.4 0 0.6 0.3zm-2 2c0.7 0.8 1.1 1.8 1.1 2.9 0 1.1-0.4 2.1-1.1 2.9-0.8 0.8-1.8 1.2-2.9 1.2-1.1 0-2.2-0.4-2.9-1.2-0.8-0.7-1.3-1.8-1.3-2.9 0-1.1 0.5-2.2 1.3-2.9 0.7-0.8 1.8-1.2 2.9-1.2 1.1 0 2.1 0.5 2.9 1.2zm-4.8 1c-0.5 0.5-0.8 1.2-0.8 1.9 0 0.7 0.3 1.4 0.8 1.9 0.5 0.5 1.2 0.8 1.9 0.8 0.7 0 1.4-0.3 1.9-0.8 0.5-0.5 0.8-1.2 0.8-1.9 0-0.7-0.3-1.4-0.8-1.9-0.5-0.5-1.2-0.8-1.9-0.8-0.7 0-1.4 0.3-1.9 0.8z"/></svg>