<svg version="1.2" xmlns="http://www.w3.org/2000/svg" viewBox="0 0 16 16" width="16" height="16"><style>.a{fill:#fff}</style><path class="a" d="m15.9 3.1q0 0.1 0.1 0.2 0 0.1 0 0.2 0 0.1 0 0.2-0.1 0.1-0.1 0.2l-1.7 1.6-3.7-3.7 1.6-1.7q0.1 0 0.2-0.1 0.1 0 0.2 0 0.1 0 0.2 0 0.1 0.1 0.2 0.1zm-8.9 9.6v-0.2q0-0.1 0-0.2-0.1-0.1-0.1-0.2-0.1 0-0.2-0.1-0.1 0-0.2 0h-0.5v-0.5q0-0.1 0-0.2-0.1-0.1-0.1-0.2-0.1 0-0.2-0.1-0.1 0-0.2 0h-0.5v-0.5q0-0.1 0-0.2-0.1-0.1-0.1-0.2-0.1 0-0.2-0.1-0.1 0-0.2 0h-0.5v-0.5q0-0.1 0-0.2-0.1-0.1-0.1-0.2-0.1 0-0.2-0.1-0.1 0-0.2 0h-0.2l6.5-6.5 3.7 3.7zm-1.1 1.2q-0.1 0-0.1 0 0 0 0 0 0 0-0.1 0 0 0.1 0 0.1l-5 2q-0.2 0-0.3 0-0.1 0-0.3-0.1-0.1-0.2-0.1-0.3 0-0.1 0-0.3l2-5q0 0 0.1 0 0-0.1 0-0.1 0 0 0 0 0 0 0-0.1l0.2-0.1q0 0 0.1 0 0 0 0 0 0 0 0.1 0 0 0 0 0h0.5v0.5q0 0.1 0 0.2 0.1 0.1 0.1 0.2 0.1 0 0.2 0.1 0.1 0 0.2 0h0.5v0.5q0 0.1 0 0.2 0.1 0.1 0.1 0.2 0.1 0 0.2 0.1 0.1 0 0.2 0h0.5v0.5q0 0.1 0 0.2 0.1 0.1 0.1 0.2 0.1 0 0.2 0.1 0.1 0 0.2 0h0.5v0.5q0 0 0 0 0 0.1 0 0.1 0 0 0 0 0 0.1 0 0.1c0 0-0.1 0.2-0.1 0.2z"/></svg>