<svg version="1.2" xmlns="http://www.w3.org/2000/svg" viewBox="0 0 16 16" width="16" height="16"><style>.a{fill:#fff}</style><path fill-rule="evenodd" class="a" d="m7 14c0 0-1 0-1-1 0-1 1-4 5-4 4 0 5 3 5 4 0 1-1 1-1 1zm1.9-6.9c-0.6-0.5-0.9-1.3-0.9-2.1 0-0.8 0.3-1.6 0.9-2.1 0.5-0.6 1.3-0.9 2.1-0.9 0.8 0 1.6 0.3 2.1 0.9 0.6 0.5 0.9 1.3 0.9 2.1 0 0.8-0.3 1.6-0.9 2.1-0.5 0.6-1.3 0.9-2.1 0.9-0.8 0-1.6-0.3-2.1-0.9z"/><path fill-rule="evenodd" class="a" d="m1 14c0 0-1 0-1-1 0-1 1-4 5-4q0.2 0 0.5 0 0.2 0 0.5 0.1 0.2 0 0.5 0.1 0.2 0 0.4 0.1c-1.2 0.9-1.9 2.3-1.9 3.7q0 0.1 0 0.3 0 0.1 0.1 0.2 0 0.1 0 0.3 0.1 0.1 0.1 0.2z"/><path class="a" d="m2.7 7.3c-0.4-0.5-0.7-1.1-0.7-1.8 0-0.7 0.3-1.3 0.7-1.8 0.5-0.4 1.1-0.7 1.8-0.7 0.7 0 1.3 0.3 1.8 0.7 0.4 0.5 0.7 1.1 0.7 1.8 0 0.7-0.3 1.3-0.7 1.8-0.5 0.4-1.1 0.7-1.8 0.7-0.7 0-1.3-0.3-1.8-0.7z"/></svg>