<svg version="1.2" xmlns="http://www.w3.org/2000/svg" viewBox="0 0 16 16" width="16" height="16"><style>.a{fill:#fff}</style><path fill-rule="evenodd" class="a" d="m14.6 3.5q0.4 0.7 0.7 1.4 0.3 0.7 0.5 1.5 0.1 0.8 0.1 1.5c0 4.4-3.5 8-7.9 8q-0.5 0-1-0.1-0.5-0.1-1-0.2-0.4-0.1-0.9-0.3-0.5-0.2-0.9-0.4l-4.2 1.1 1.1-4.1c-0.7-1.2-1-2.6-1-4 0-4.3 3.5-7.9 7.9-7.9q0.8 0 1.5 0.1 0.8 0.2 1.5 0.5 0.8 0.3 1.4 0.7 0.7 0.5 1.2 1 0.6 0.6 1 1.2zm0 4.4q0-0.6-0.1-1.3-0.2-0.6-0.4-1.2-0.3-0.6-0.6-1.1-0.4-0.6-0.8-1-0.5-0.5-1-0.9-0.6-0.3-1.2-0.6-0.6-0.2-1.2-0.3-0.7-0.2-1.3-0.2c-3.6 0-6.6 3-6.6 6.6q0 0.5 0.1 0.9 0 0.5 0.2 0.9 0.1 0.5 0.3 0.9 0.2 0.4 0.4 0.8l0.2 0.3-0.7 2.4 2.5-0.6 0.2 0.1q0.4 0.2 0.8 0.4 0.4 0.2 0.9 0.3 0.4 0.1 0.8 0.2 0.5 0 0.9 0c3.6 0 6.6-2.9 6.6-6.6zm-2.6 1.9c0 0.1 0 0.5-0.1 1-0.2 0.4-1 0.8-1.4 0.9-0.3 0.1-0.7 0.1-1.2-0.1q-0.4-0.1-1.1-0.4c-2-0.9-3.3-2.9-3.4-3-0.1-0.1-0.8-1.1-0.8-2 0-1 0.5-1.5 0.7-1.7q0 0 0.1-0.1 0 0 0.1-0.1 0.1 0 0.1 0 0.1 0 0.2 0 0.2 0 0.4 0c0.1 0 0.3-0.1 0.4 0.3 0.2 0.4 0.6 1.4 0.6 1.5 0.1 0.1 0.1 0.2 0 0.3 0 0.2-0.1 0.2-0.2 0.4-0.1 0.1-0.2 0.2-0.3 0.3-0.1 0.1-0.2 0.2 0 0.4 0.1 0.2 0.5 0.9 1.1 1.4 0.7 0.7 1.4 0.9 1.6 1 0.2 0.1 0.3 0 0.4-0.1 0.1-0.1 0.5-0.6 0.6-0.8 0.1-0.2 0.3-0.1 0.5-0.1 0.1 0.1 1.1 0.6 1.3 0.7 0.2 0.1 0.3 0.1 0.4 0.2z"/></svg>